<svg width="16" height="17" viewBox="0 0 16 17" fill="none" xmlns="http://www.w3.org/2000/svg">
<path d="M13.3334 4.75002C13.3334 4.75002 11.8047 3.55335 10.0001 3.41669L9.83741 3.74235C11.4687 4.14202 12.2174 4.71335 13.0001 5.41669C11.6511 4.72802 10.3201 4.08335 8.00008 4.08335C5.68008 4.08335 4.34908 4.72802 3.00008 5.41669C3.78275 4.71335 4.67341 4.07802 6.16275 3.74235L6.00008 3.41669C4.10675 3.59502 2.66675 4.75002 2.66675 4.75002C2.66675 4.75002 0.959748 7.22535 0.666748 12.0834C2.38675 14.0677 5.00008 14.0834 5.00008 14.0834L5.54675 13.3554C4.61875 13.0327 3.57208 12.457 2.66675 11.4167C3.74608 12.2334 5.37508 13.0834 8.00008 13.0834C10.6251 13.0834 12.2541 12.2334 13.3334 11.4167C12.4284 12.457 11.3817 13.0327 10.4534 13.3554L11.0001 14.0834C11.0001 14.0834 13.6134 14.0677 15.3334 12.0834C15.0404 7.22535 13.3334 4.75002 13.3334 4.75002ZM5.83341 10.75C5.18875 10.75 4.66675 10.1534 4.66675 9.41669C4.66675 8.68002 5.18875 8.08335 5.83341 8.08335C6.47808 8.08335 7.00008 8.68002 7.00008 9.41669C7.00008 10.1534 6.47808 10.75 5.83341 10.75ZM10.1667 10.75C9.52208 10.75 9.00008 10.1534 9.00008 9.41669C9.00008 8.68002 9.52208 8.08335 10.1667 8.08335C10.8114 8.08335 11.3334 8.68002 11.3334 9.41669C11.3334 10.1534 10.8114 10.75 10.1667 10.75Z" fill="#5865F2"/>
</svg>
