<svg width="33" height="33" viewBox="0 0 33 33" fill="none" xmlns="http://www.w3.org/2000/svg">
<path d="M29.8195 6.44953H29.8165C29.8145 6.44953 29.8116 6.45052 29.8086 6.45052C29.8056 6.45151 29.8017 6.45151 29.799 6.4525C29.7776 6.45646 29.7436 6.46306 29.6977 6.47098H29.6967C29.6403 6.48154 29.567 6.4954 29.4766 6.5119C29.4083 6.52444 29.3314 6.53929 29.2456 6.55579C29.1892 6.56635 29.1278 6.57823 29.0625 6.59077C28.0893 6.77986 26.2723 7.14814 24.1293 7.65931C23.7006 7.76161 23.2594 7.86985 22.8093 7.9837C22.6581 8.02165 22.5073 8.06059 22.3552 8.09953C22.2031 8.13847 22.0503 8.17741 21.8965 8.21833C21.7427 8.25826 21.5886 8.29918 21.4338 8.34109C20.8144 8.50675 20.1861 8.68198 19.5594 8.86513C18.5958 9.1486 17.6626 9.52381 16.7752 9.99043C16.6135 10.0752 16.4538 10.163 16.2961 10.2534C16.0595 10.3897 15.8255 10.5329 15.5958 10.6831H15.5948C15.5219 10.7319 15.4486 10.7795 15.3767 10.8293C15.3038 10.8791 15.2315 10.9286 15.1605 10.9794C15.0896 11.0303 15.0193 11.0817 14.949 11.1342C14.8797 11.1857 14.8107 11.2385 14.7434 11.2919C14.7094 11.3183 14.6761 11.3454 14.6431 11.3718C14.5438 11.4527 14.4474 11.5345 14.3557 11.6173C14.2943 11.6728 14.2349 11.7285 14.1775 11.784C14.1201 11.8404 14.0646 11.8968 14.0118 11.9536C14.0253 11.9242 14.2689 11.4276 15.4701 10.2264C14.9361 10.43 14.424 10.6405 13.9386 10.8557C13.7934 10.921 13.6501 10.9864 13.5099 11.0514C13.1825 11.2042 12.8707 11.3612 12.5757 11.519C12.5337 11.5414 12.4918 11.5639 12.4509 11.5873C11.9949 11.8378 11.585 12.0948 11.2302 12.3559C10.9174 12.5869 10.6329 12.84 10.3749 13.1139V13.1149C10.2901 13.2056 10.2072 13.298 10.1274 13.3934C10.0875 13.4412 10.0485 13.4897 10.0106 13.5386C9.85843 13.7333 9.71917 13.9349 9.59179 14.1435C8.73445 15.5549 8.46649 17.258 8.84863 18.8625C8.8681 18.9423 8.88856 19.0212 8.91001 19.1001V19.1011C9.10867 19.8122 9.43801 20.5009 9.90265 21.1312C10.0129 21.2804 10.1277 21.4226 10.2485 21.5589C10.2884 21.6048 10.3293 21.6497 10.3703 21.6932C10.4511 21.782 10.5359 21.8675 10.6227 21.9483C10.6656 21.9902 10.7095 22.0301 10.7534 22.0701C10.7973 22.11 10.8422 22.1489 10.8867 22.1869C11.0309 22.3106 11.1801 22.4255 11.3329 22.5337C11.4857 22.641 11.6418 22.7423 11.8025 22.8357H11.8035C12.084 22.9984 12.3763 23.1386 12.6753 23.2554C12.6763 23.2564 12.6763 23.2554 12.6763 23.2554C13.8201 23.6996 15.0787 23.8029 16.2885 23.5419C16.2895 23.5409 16.2905 23.5409 16.2905 23.5409C16.3987 23.5175 16.5076 23.4904 16.6158 23.461C16.6383 23.4551 16.6597 23.4485 16.6822 23.4425C16.731 23.428 16.7795 23.4132 16.8284 23.3987C17.0204 23.3383 17.2102 23.269 17.3963 23.1891C17.4432 23.1696 17.4897 23.1502 17.5365 23.1287C17.9322 22.9495 18.315 22.7264 18.6783 22.4585C18.9882 22.2305 19.2852 21.9714 19.5717 21.6869C19.7433 21.5153 19.9106 21.3352 20.0742 21.1464C20.2389 20.9583 20.3996 20.7606 20.5564 20.556C20.6392 20.4478 20.721 20.3379 20.8019 20.2257C20.9781 19.9832 21.1507 19.7317 21.3193 19.4726C21.4675 19.2456 21.6127 19.012 21.7566 18.774C21.8998 18.5364 22.042 18.2929 22.1813 18.0454C22.5077 17.4676 22.8251 16.8686 23.1399 16.2578C23.2297 16.0845 23.3181 15.909 23.4069 15.7328C23.4518 15.645 23.4957 15.5575 23.5402 15.4688C23.5383 15.4707 23.5333 15.4747 23.5257 15.4803C23.5043 15.4988 23.4624 15.5328 23.401 15.5777C23.2657 15.675 23.0347 15.8242 22.7123 15.9664C22.6383 15.9994 22.5585 16.0317 22.4747 16.0628C22.3823 16.0967 22.2846 16.1301 22.1806 16.1611C22.0325 16.206 21.8718 16.2459 21.7005 16.2789L21.7015 16.2779C21.7015 16.2779 21.7015 16.2759 21.7025 16.2749C21.7025 16.274 21.7035 16.271 21.7044 16.268C21.7054 16.2641 21.7074 16.2591 21.7094 16.2535C21.7229 16.2155 21.7513 16.1327 21.8008 16.01C21.8143 15.975 21.8302 15.937 21.8477 15.8961C21.9899 15.5618 22.246 15.0183 22.6756 14.2996C22.7291 14.2098 22.7859 14.1174 22.8443 14.022C23.6422 12.738 24.9483 10.9679 27.0363 8.88229C27.3451 8.57341 27.6715 8.25694 28.0164 7.93453C28.2744 7.69198 28.5434 7.44646 28.8219 7.19797C28.9008 7.12768 28.9816 7.06069 29.0634 6.99436C29.1453 6.92803 29.2271 6.86269 29.3109 6.80065C29.4776 6.67492 29.6489 6.55711 29.8234 6.44788C29.8224 6.44788 29.8215 6.44788 29.8205 6.44887L29.8195 6.44953ZM20.8151 16.005L20.3584 17.4778L21.5662 17.2468C21.2273 17.8636 20.892 18.4315 20.5432 18.9681C19.7277 20.2188 18.9377 21.117 18.1282 21.7133C17.2019 22.3961 16.106 22.7578 14.9592 22.7578C14.6094 22.7578 14.2626 22.7228 13.9247 22.6555C12.9934 22.4714 12.1245 22.0417 11.4134 21.4154C11.1319 21.1679 10.8748 20.8883 10.6488 20.5814C8.89912 18.2074 9.40666 14.8513 11.7797 13.1007C12.0622 12.8931 12.3925 12.6829 12.7674 12.4704C12.8766 12.7849 12.9855 13.0987 13.0957 13.4135C13.797 12.9974 14.295 12.6634 14.6289 12.4278C14.7837 12.3186 15.152 12.0625 15.6704 11.7256C15.7922 11.6467 15.9304 11.5599 16.102 11.4586C16.6894 11.1088 17.8167 10.3412 19.8205 9.75382C21.2972 9.32119 22.7819 8.93641 24.1438 8.60905C24.9457 8.416 25.7054 8.24275 26.3951 8.09095C26.4485 8.0794 26.5013 8.06752 26.5538 8.05597C21.8942 12.6578 20.8606 15.8572 20.8151 16.0053V16.005Z" fill="url(#paint0_linear_1_114)"/>
<path d="M29.8215 6.44757C29.8215 6.44757 29.8205 6.44856 29.8195 6.44955C29.6462 6.55779 29.4756 6.6756 29.31 6.80133C29.2262 6.8637 29.1443 6.92904 29.0625 6.99504C28.9806 7.06104 28.9008 7.12935 28.8209 7.19964C28.5424 7.44813 28.2734 7.69365 28.0154 7.93521C27.6715 8.25762 27.3452 8.57442 27.0353 8.88297C24.9477 10.9686 23.6412 12.7387 22.8433 14.0227C22.7849 14.1181 22.7285 14.2108 22.6747 14.3003C22.245 15.0193 21.9889 15.5628 21.8467 15.8968C21.8302 15.9377 21.8137 15.9757 21.7998 16.0106C21.75 16.1334 21.722 16.2162 21.7084 16.2542C21.7064 16.2601 21.7045 16.2647 21.7035 16.2687C21.7025 16.2717 21.7015 16.2746 21.7015 16.2756C21.7005 16.2776 21.7005 16.2786 21.7005 16.2786C21.8721 16.2456 22.0318 16.2067 22.1797 16.1618C22.2839 16.1308 22.3813 16.0974 22.4737 16.0634C22.5575 16.0324 22.6374 15.9991 22.7113 15.9671C23.0337 15.8249 23.2647 15.6757 23.4 15.5783C23.4624 15.5335 23.5043 15.4995 23.5247 15.481C23.5327 15.475 23.5373 15.4711 23.5393 15.4694C23.4944 15.5582 23.4505 15.6457 23.4059 15.7334C23.3172 15.9087 23.2277 16.0842 23.139 16.2585C22.8245 16.8693 22.5067 17.4682 22.1803 18.0461C22.0401 18.2936 21.8988 18.5371 21.7556 18.7747C21.6114 19.0123 21.4662 19.2463 21.3184 19.4733C21.1497 19.7324 20.9775 19.9838 20.8009 20.2264C20.7201 20.3383 20.6382 20.4485 20.5554 20.5567C20.3987 20.7613 20.2379 20.959 20.0733 21.1471C19.9096 21.3362 19.742 21.5164 19.5707 21.6876C19.2842 21.9721 18.9872 22.2311 18.6774 22.4592C18.314 22.7271 17.9312 22.9502 17.5356 23.1294C17.4887 23.1499 17.4432 23.1703 17.3953 23.1898C17.2092 23.2696 17.0195 23.339 16.8274 23.3993C16.7786 23.4139 16.73 23.4287 16.6812 23.4432C16.6588 23.4492 16.6373 23.4558 16.6149 23.4617C16.5066 23.4911 16.3987 23.5181 16.2895 23.5416C16.2895 23.5416 16.2885 23.5416 16.2875 23.5426C15.0787 23.8046 13.8191 23.7013 12.6753 23.2561C12.6753 23.2561 12.6753 23.2571 12.6743 23.2561C12.3754 23.1403 12.084 23 11.8025 22.8364H11.8015C11.6418 22.744 11.485 22.6436 11.3319 22.5344C11.1791 22.4262 11.03 22.3113 10.8857 22.1876C11.7296 22.4945 12.8225 22.775 13.9241 22.6562C14.262 22.7235 14.6088 22.7585 14.9586 22.7585C16.1054 22.7585 17.2013 22.3971 18.1276 21.714C18.9371 21.1177 19.7271 20.2198 20.5425 18.9688C20.8913 18.4319 21.2263 17.8639 21.5655 17.2475L20.3577 17.4785L20.8145 16.0057C20.8603 15.8575 21.8939 12.6585 26.5532 8.05632C26.5551 8.05467 26.6271 8.02299 26.7248 7.97646C26.8825 7.90122 27.0148 7.8339 27.1145 7.78176C28.0167 7.33725 28.9186 6.89274 29.8208 6.44823L29.8215 6.44757Z" fill="#FDFFFF"/>
<path d="M28.5774 6.68713C27.5016 6.90163 25.8235 7.25374 23.9138 7.71211C25.8311 7.24912 27.5045 6.89866 28.5774 6.68713Z" fill="url(#paint1_linear_1_114)"/>
<path d="M29.5868 6.49109C29.5344 6.50198 29.4726 6.51254 29.4047 6.52508C29.4743 6.51287 29.5344 6.50033 29.5868 6.49109Z" fill="url(#paint2_linear_1_114)"/>
<path d="M29.6855 6.4726C29.6577 6.47887 29.6238 6.48481 29.5868 6.49108C29.6238 6.48349 29.6577 6.47722 29.6855 6.4726Z" fill="url(#paint3_linear_1_114)"/>
<path d="M29.8201 6.44788C29.8201 6.44788 29.8186 6.44788 29.8174 6.44938C29.8147 6.44938 29.8105 6.44938 29.8063 6.45089C29.8132 6.44938 29.8174 6.44818 29.8204 6.44818L29.8201 6.44788Z" fill="url(#paint4_linear_1_114)"/>
<path d="M14.9589 20.5966C13.9326 20.5966 12.9957 20.1238 12.3882 19.2994C11.3454 17.8844 11.648 15.8839 13.063 14.8401C13.2686 14.689 16.8079 13.5789 17.2851 13.267C18.2401 12.6443 19.2987 12.1599 20.4296 11.8276C20.496 11.8081 20.5626 11.7889 20.6296 11.7695C19.2585 13.8303 18.8159 15.1566 18.7516 15.3642L17.689 18.7882C17.5418 19.2628 17.2468 19.6779 16.8471 19.9733C16.2944 20.3808 15.6417 20.5963 14.9592 20.5963L14.9589 20.5966Z" fill="url(#paint5_linear_1_114)"/>
<path d="M14.9589 20.5966C13.9326 20.5966 12.9957 20.1238 12.3882 19.2994C11.3454 17.8844 11.648 15.8839 13.063 14.8401C13.2686 14.689 16.8079 13.5789 17.2851 13.267C18.2401 12.6443 19.2987 12.1599 20.4296 11.8276C20.496 11.8081 20.5626 11.7889 20.6296 11.7695C19.2585 13.8303 18.8159 15.1566 18.7516 15.3642L17.689 18.7882C17.5418 19.2628 17.2468 19.6779 16.8471 19.9733C16.2944 20.3808 15.6417 20.5963 14.9592 20.5963L14.9589 20.5966Z" fill="url(#paint6_linear_1_114)"/>
<path d="M14.9589 20.2881C14.032 20.2881 13.1855 19.861 12.6367 19.1166C11.6972 17.8418 11.9668 16.0413 13.2364 15.0965C12.4942 16.2495 12.7024 17.7804 13.7132 18.6826C14.7464 19.605 16.3347 19.6168 17.3937 18.6975C17.265 19.1119 17.0125 19.4673 16.6634 19.7254C16.5908 19.7789 16.2631 20.0307 15.749 20.1775C15.5625 20.231 15.2919 20.2877 14.9589 20.2881Z" fill="#FDFFFF"/>
<path d="M26.6218 14.0916C24.9923 14.0916 23.666 15.4179 23.666 17.0471C23.666 17.8527 23.993 18.5862 24.519 19.1205C23.5809 23.0492 20.0433 25.9782 15.8298 25.9782C10.9046 25.9782 6.89902 21.9727 6.89902 17.0471C6.89902 12.8551 9.74593 9.30401 13.7571 8.35922C14.291 8.88557 15.023 9.21128 15.8301 9.21128C17.46 9.21128 18.7856 7.88534 18.7856 6.2558C18.7856 4.62626 17.4597 3.29999 15.8301 3.29999C14.7979 3.29999 13.8888 3.83294 13.3598 4.63682C7.43263 5.80469 3.17761 10.9494 3.17761 17.0475C3.17761 24.025 8.85262 29.7 15.8298 29.7C21.9619 29.7 27.0868 25.3169 28.2378 19.5198C29.043 18.9908 29.5776 18.0817 29.5776 17.0478C29.5776 15.4186 28.2513 14.0923 26.6218 14.0923V14.0916ZM15.8301 4.89488C16.5806 4.89488 17.1911 5.50538 17.1911 6.2558C17.1911 7.00622 16.5806 7.61672 15.8301 7.61672C15.0797 7.61672 14.4692 7.00622 14.4692 6.2558C14.4692 5.50538 15.0797 4.89488 15.8301 4.89488ZM26.6218 15.6865C27.3712 15.6865 27.9827 16.298 27.9827 17.0475C27.9827 17.7969 27.3716 18.4084 26.6218 18.4084C25.872 18.4084 25.2609 17.7969 25.2609 17.0475C25.2609 16.298 25.8724 15.6865 26.6218 15.6865Z" fill="url(#paint7_linear_1_114)"/>
<path d="M28.2377 19.5195C27.086 25.316 21.9628 29.7 15.8297 29.7C8.85221 29.7 3.17786 24.0254 3.17786 17.0482C3.17786 10.9491 7.43222 5.80574 13.36 4.63721C12.1113 5.14046 8.82152 6.66242 6.74219 10.2578C4.79882 13.6135 3.72599 19.0985 6.89036 23.433C10.058 27.7709 15.8436 28.7341 20.2461 27.3168C25.8512 25.5137 27.9569 20.2561 28.2377 19.5199V19.5195Z" fill="#FDFFFF"/>
<path fill-rule="evenodd" clip-rule="evenodd" d="M27.0185 10.8741L26.8452 11.3843L26.2944 11.5747L26.8452 11.7229L27.0046 12.2288L27.1914 11.7229L27.7421 11.5747L27.1914 11.3843L27.0185 10.8741Z" fill="url(#paint8_linear_1_114)"/>
<path fill-rule="evenodd" clip-rule="evenodd" d="M21.4477 4.86884L21.1521 5.73905L20.2129 6.0641L21.1521 6.31622L21.4243 7.1795L21.7431 6.31622L22.6826 6.0641L21.7431 5.73905L21.4477 4.86884Z" fill="url(#paint9_linear_1_114)"/>
<path fill-rule="evenodd" clip-rule="evenodd" d="M19.569 10.296L19.4492 10.6488L19.0684 10.7805L19.4492 10.8828L19.5594 11.2329L19.6888 10.8828L20.0696 10.7805L19.6888 10.6488L19.569 10.296Z" fill="url(#paint10_linear_1_114)"/>
<path fill-rule="evenodd" clip-rule="evenodd" d="M19.7983 15.7601L19.736 15.9436L19.538 16.0119L19.736 16.0654L19.7934 16.2472L19.8607 16.0654L20.0587 16.0119L19.8607 15.9436L19.7983 15.7601Z" fill="url(#paint11_linear_1_114)"/>
<path fill-rule="evenodd" clip-rule="evenodd" d="M16.3095 12.1846L16.2046 12.4938L15.871 12.6093L16.2046 12.699L16.3013 13.0056L16.4145 12.699L16.7484 12.6093L16.4145 12.4938L16.3095 12.1846Z" fill="url(#paint12_linear_1_114)"/>
<defs>
<linearGradient id="paint0_linear_1_114" x1="33.2287" y1="4.5781" x2="9.05653" y2="21.5474" gradientUnits="userSpaceOnUse">
<stop stop-color="#077BFF"/>
<stop offset="0.27" stop-color="#097DFF"/>
<stop offset="0.44" stop-color="#1284FF"/>
<stop offset="0.59" stop-color="#2191FF"/>
<stop offset="0.72" stop-color="#36A3FF"/>
<stop offset="0.85" stop-color="#51BBFF"/>
<stop offset="0.96" stop-color="#72D7FF"/>
<stop offset="1" stop-color="#80E3FF"/>
</linearGradient>
<linearGradient id="paint1_linear_1_114" x1="24.5923" y1="8.85292" x2="27.1528" y2="6.29245" gradientUnits="userSpaceOnUse">
<stop stop-color="#71C6B7"/>
<stop offset="1" stop-color="#2A75B9"/>
</linearGradient>
<linearGradient id="paint2_linear_1_114" x1="29.433" y1="6.57062" x2="29.5304" y2="6.4736" gradientUnits="userSpaceOnUse">
<stop stop-color="#71C6B7"/>
<stop offset="1" stop-color="#2A75B9"/>
</linearGradient>
<linearGradient id="paint3_linear_1_114" x1="29.602" y1="6.51583" x2="29.6548" y2="6.46303" gradientUnits="userSpaceOnUse">
<stop stop-color="#71C6B7"/>
<stop offset="1" stop-color="#2A75B9"/>
</linearGradient>
<linearGradient id="paint4_linear_1_114" x1="29.8081" y1="6.4542" x2="29.8159" y2="6.44637" gradientUnits="userSpaceOnUse">
<stop stop-color="#71C6B7"/>
<stop offset="1" stop-color="#2A75B9"/>
</linearGradient>
<linearGradient id="paint5_linear_1_114" x1="12.2684" y1="20.0861" x2="17.6731" y2="14.6814" gradientUnits="userSpaceOnUse">
<stop stop-color="#71C6B7"/>
<stop offset="1" stop-color="#2A75B9"/>
</linearGradient>
<linearGradient id="paint6_linear_1_114" x1="20.7507" y1="11.6035" x2="11.546" y2="20.8085" gradientUnits="userSpaceOnUse">
<stop stop-color="#077BFF"/>
<stop offset="0.25" stop-color="#2191FF"/>
<stop offset="0.8" stop-color="#65CCFF"/>
<stop offset="1" stop-color="#80E3FF"/>
</linearGradient>
<linearGradient id="paint7_linear_1_114" x1="0.796992" y1="3.47225" x2="28.4602" y2="31.1355" gradientUnits="userSpaceOnUse">
<stop offset="0.2" stop-color="#077BFF"/>
<stop offset="1" stop-color="#80E3FF"/>
</linearGradient>
<linearGradient id="paint8_linear_1_114" x1="25.5206" y1="13.0726" x2="27.4795" y2="11.1137" gradientUnits="userSpaceOnUse">
<stop offset="0.43" stop-color="#077BFF"/>
<stop offset="0.6" stop-color="#2797FF"/>
<stop offset="0.98" stop-color="#7ADEFF"/>
<stop offset="1" stop-color="#80E3FF"/>
</linearGradient>
<linearGradient id="paint9_linear_1_114" x1="20.3439" y1="7.16795" x2="22.8443" y2="4.66721" gradientUnits="userSpaceOnUse">
<stop stop-color="#077BFF"/>
<stop offset="0.3" stop-color="#2797FF"/>
<stop offset="0.96" stop-color="#7ADEFF"/>
<stop offset="1" stop-color="#80E3FF"/>
</linearGradient>
<linearGradient id="paint10_linear_1_114" x1="19.1482" y1="11.2012" x2="20.1838" y2="10.1657" gradientUnits="userSpaceOnUse">
<stop stop-color="#077BFF"/>
<stop offset="0.3" stop-color="#2797FF"/>
<stop offset="0.96" stop-color="#7ADEFF"/>
<stop offset="1" stop-color="#80E3FF"/>
</linearGradient>
<linearGradient id="paint11_linear_1_114" x1="19.44" y1="16.3703" x2="20.752" y2="15.0582" gradientUnits="userSpaceOnUse">
<stop stop-color="#077BFF"/>
<stop offset="0.3" stop-color="#2797FF"/>
<stop offset="0.96" stop-color="#7ADEFF"/>
<stop offset="1" stop-color="#80E3FF"/>
</linearGradient>
<linearGradient id="paint12_linear_1_114" x1="15.963" y1="12.9561" x2="17.0636" y2="11.8552" gradientUnits="userSpaceOnUse">
<stop stop-color="#077BFF"/>
<stop offset="0.3" stop-color="#2797FF"/>
<stop offset="0.96" stop-color="#7ADEFF"/>
<stop offset="1" stop-color="#80E3FF"/>
</linearGradient>
</defs>
</svg>
